<mxfile host="app.diagrams.net" modified="2023-11-01T11:47:04.078Z" agent="Mozilla/5.0 (Macintosh; Intel Mac OS X 10_15_7) AppleWebKit/537.36 (KHTML, like Gecko) Chrome/118.0.0.0 Safari/537.36" version="22.0.8" etag="usKx0kDVI_qqHuvfwwBp" type="github">
  <diagram name="Page-1" id="C_Ihf8z3dIBC463eBw3k">
    <mxGraphModel>
      <root>
        <mxCell id="0" />
        <mxCell id="1" parent="0" />
      </root>
    </mxGraphModel>
  </diagram>
</mxfile>
